# xmcd
#
# Track frame offsets:
#	150
#	14464
#	24220
#	31516
#	39741
#	46662
#	57160
#	72206
#	86455
#	101449
#	109018
#	115980
#	125898
#	141876
#	158834
#	173746
#	187633
#	200366
#	214947
#	224934
#	239530
#	265227
#	277476
#	289406
#	303764
#	316584
#
# Disc length: 4438 seconds
#
# Revision: 0
# Processed by: cddbd v1.5.2PL0 Copyright (c) Steve Scherf et al.
# Submitted via: EasyCDDAExtractor 11.5.0.1
#
DISCID=7711541a
DTITLE=Afrikaans - Lekker Braai Treffers Vol 3
DYEAR=1900
DGENRE=Afrikaans
TTITLE0=Feelin' The Feelin'
TTITLE1=n Man kom so laat by die huis
TTITLE2=Meisie Meisie
TTITLE3=Jaloers B okkie
TTITLE4=Mesie sonder Sokkies
TTITLE5=Ou Ryperd
TTITLE6=Hero
TTITLE7=Evergreen
TTITLE8=A Thousand Pieces
TTITLE9=Tussen jou en my
TTITLE10=Beautiful in Beaufort-Wes
TTITLE11=Skielik is jy vry
TTITLE12=She believes in me
TTITLE13=Om totsiens te se
TTITLE14=My kombi Panelvan
TTITLE15=Country Roads
TTITLE16=Kom dans met my
TTITLE17=Blue Train
TTITLE18=Swaai my draai my
TTITLE19=Die gat in die grond
TTITLE20=Swingry by die Merrygoround
TTITLE21=Hiert jou lekker ding
TTITLE22=Ek hou nie van werk nie
TTITLE23=Ag kom nou
TTITLE24=Hoela Hey
TTITLE25=Jodel Liedjie
EXTD=
EXTT0=
EXTT1=
EXTT2=
EXTT3=
EXTT4=
EXTT5=
EXTT6=
EXTT7=
EXTT8=
EXTT9=
EXTT10=
EXTT11=
EXTT12=
EXTT13=
EXTT14=
EXTT15=
EXTT16=
EXTT17=
EXTT18=
EXTT19=
EXTT20=
EXTT21=
EXTT22=
EXTT23=
EXTT24=
EXTT25=
PLAYORDER=
